<svg id="Layer_1" data-name="Layer 1" xmlns="http://www.w3.org/2000/svg" viewBox="0 0 178 63.29"><defs><style>.cls-1{fill:#3bb54a;}.cls-2{fill:#ef4136;}.cls-3{fill:#1b75bc;}</style></defs><title>hapipie-web-logo</title><path class="cls-1" d="M50.45,33.26h0a1.7,1.7,0,0,1-1.72-1.69V21.8A1.7,1.7,0,0,0,47,20.11H35.29a1.7,1.7,0,0,0-1.72,1.69v9.77a1.72,1.72,0,0,1-3.43,0V6.12a1.72,1.72,0,0,1,3.43,0v9.27a1.7,1.7,0,0,0,1.72,1.69H47a1.7,1.7,0,0,0,1.72-1.69V6.12a1.72,1.72,0,0,1,3.43,0V31.57A1.7,1.7,0,0,1,50.45,33.26Z"/><path class="cls-2" d="M107,7.45a2.14,2.14,0,0,1-1.53-.6,2,2,0,0,1-.63-1.53,2.05,2.05,0,0,1,.63-1.54A2.12,2.12,0,0,1,107,3.17a2.18,2.18,0,0,1,1.56.61,2,2,0,0,1,.63,1.32A2.16,2.16,0,0,1,107,7.45Z"/><path class="cls-3" d="M73,33.26h-.55A1.39,1.39,0,0,1,71,31.88V30h-.08a7,7,0,0,1-6.44,3.7,7,7,0,0,1-4.89-1.63,5.59,5.59,0,0,1-1.77-4.32q0-5.77,6.91-6.71l5-.69a1.39,1.39,0,0,0,1.19-1.57Q70.41,15,66.72,15a10.18,10.18,0,0,0-4.79,1.17,1.39,1.39,0,0,1-2-1.22,1.34,1.34,0,0,1,.69-1.19A13.32,13.32,0,0,1,67,12.19q7.38,0,7.38,7.68v12A1.39,1.39,0,0,1,73,33.26Zm-2-8.83a1.39,1.39,0,0,0-1.59-1.36L66,23.53a8.29,8.29,0,0,0-3.52,1.14,3.25,3.25,0,0,0-1.19,2.88A3.12,3.12,0,0,0,62.38,30a4.27,4.27,0,0,0,2.91,1,5.42,5.42,0,0,0,4.12-1.72A6.08,6.08,0,0,0,71,24.9Z"/><path class="cls-3" d="M84.13,30.28h-.08V41.08a1.68,1.68,0,0,1-3.35,0V14.32a1.68,1.68,0,0,1,3.35,0v2h.08a8,8,0,0,1,7.23-4.1A7.72,7.72,0,0,1,97.68,15,11.32,11.32,0,0,1,100,22.36a12.62,12.62,0,0,1-2.55,8.27,8.57,8.57,0,0,1-7,3.11A7,7,0,0,1,84.13,30.28ZM84.05,22v2.87a6.06,6.06,0,0,0,1.69,4.33,6.08,6.08,0,0,0,9.05-.51,10.38,10.38,0,0,0,1.73-6.37,8.21,8.21,0,0,0-1.61-5.39A5.38,5.38,0,0,0,90.53,15a6,6,0,0,0-4.7,2A7.27,7.27,0,0,0,84.05,22Z"/><path class="cls-3" d="M107,33.26h0a1.66,1.66,0,0,1-1.68-1.65V14.32a1.68,1.68,0,0,1,3.35,0V31.61A1.66,1.66,0,0,1,107,33.26Z"/><path class="cls-3" d="M136.09,12a10.89,10.89,0,0,1-.74,4,8.91,8.91,0,0,1-2.24,3.29,10.68,10.68,0,0,1-3.81,2.22,16.37,16.37,0,0,1-5.44.81H120.8a1.71,1.71,0,0,0-1.68,1.34l-1.76,8.23a1.72,1.72,0,0,1-3.36-.7l5.47-25.44a1.71,1.71,0,0,1,1.68-1.34h6.19a11.33,11.33,0,0,1,4,.63,7.58,7.58,0,0,1,2.72,1.69,6.41,6.41,0,0,1,1.53,2.42A8.47,8.47,0,0,1,136.09,12Zm-3.62.3a5,5,0,0,0-.38-2A4.1,4.1,0,0,0,131,8.81a5.1,5.1,0,0,0-1.83-1,8.49,8.49,0,0,0-2.52-.34H124a1.71,1.71,0,0,0-1.68,1.34l-1.82,8.44a1.7,1.7,0,0,0,1.68,2h2a11.6,11.6,0,0,0,3.73-.53,7.11,7.11,0,0,0,2.58-1.47A5.71,5.71,0,0,0,132,15.1,7.84,7.84,0,0,0,132.47,12.31Z"/><path class="cls-3" d="M144.84,32.15a1.63,1.63,0,0,1-1.33,1.29h0a8.26,8.26,0,0,1-1.28.1,4.21,4.21,0,0,1-3.09-1,3.66,3.66,0,0,1-1-2.72,8.13,8.13,0,0,1,.1-1.19q.1-.68.33-1.69l2.77-13a1.66,1.66,0,0,1,3.25.67L141.89,27q-.18.84-.26,1.31a5.32,5.32,0,0,0-.07.78,1.64,1.64,0,0,0,.46,1.26,2.08,2.08,0,0,0,1.46.43,6.3,6.3,0,0,0,.93-.06,4.19,4.19,0,0,0,.75-.18Z"/><path class="cls-2" d="M147,5.34a2.15,2.15,0,0,1-.62,1.55,2.06,2.06,0,0,1-1.54.64,2.19,2.19,0,0,1-1.56-.63,2.07,2.07,0,0,1-.66-1.56,1.93,1.93,0,0,1,.83-1.64,2.39,2.39,0,0,1,1.39-.45,2.17,2.17,0,0,1,1.54.59A2,2,0,0,1,147,5.34Z"/><path class="cls-3" d="M166.54,17.5a6,6,0,0,1-.74,3,6.05,6.05,0,0,1-2.43,2.29,14.77,14.77,0,0,1-4.48,1.48,39.06,39.06,0,0,1-6.87.54,2.48,2.48,0,0,0,0,.46v.4a6.73,6.73,0,0,0,.31,2.05,4.61,4.61,0,0,0,1,1.69,4.48,4.48,0,0,0,1.66,1.15,6.21,6.21,0,0,0,2.4.42,10.34,10.34,0,0,0,3.1-.53q.45-.14.9-.32a1.31,1.31,0,0,1,1.09,2.38,14.63,14.63,0,0,1-2.07.81,11.69,11.69,0,0,1-3.47.48,9.59,9.59,0,0,1-3.89-.7,6.85,6.85,0,0,1-2.55-1.88,7.28,7.28,0,0,1-1.4-2.71,11.94,11.94,0,0,1-.43-3.23,14.67,14.67,0,0,1,.41-3.49,14,14,0,0,1,1.15-3.13A13.25,13.25,0,0,1,151.9,16a11.57,11.57,0,0,1,2.31-2,10.77,10.77,0,0,1,2.72-1.31,9.83,9.83,0,0,1,3-.46,8.81,8.81,0,0,1,2.85.42,6,6,0,0,1,2.06,1.16,4.94,4.94,0,0,1,1.26,1.7A5,5,0,0,1,166.54,17.5Zm-3.41.16a2.31,2.31,0,0,0-1-2,4.14,4.14,0,0,0-2.52-.7,5.75,5.75,0,0,0-2.41.53A7.82,7.82,0,0,0,155.09,17a9.17,9.17,0,0,0-1.7,2.23,10,10,0,0,0-.46.95A1.31,1.31,0,0,0,154.19,22a30.19,30.19,0,0,0,3.13-.26,13,13,0,0,0,3.33-.85,4.47,4.47,0,0,0,1.88-1.38A3.05,3.05,0,0,0,163.12,17.66Z"/><ellipse class="cls-1" cx="5.68" cy="9.21" rx="3.7" ry="3.64" transform="translate(-4 4.37) rotate(-31.8)"/><ellipse class="cls-1" cx="17.22" cy="29.54" rx="3.7" ry="3.64" transform="translate(-12.98 13.51) rotate(-31.8)"/><ellipse class="cls-3" cx="3.69" cy="23.76" rx="3.7" ry="3.64" transform="translate(-11.97 5.51) rotate(-31.8)"/><ellipse class="cls-2" cx="14.79" cy="16.88" rx="3.7" ry="3.64" transform="translate(-6.67 10.33) rotate(-31.8)"/><ellipse class="cls-3" cx="17.48" cy="3.66" rx="3.7" ry="3.64" transform="translate(0.69 9.76) rotate(-31.8)"/><path class="cls-3" d="M33.73,58.66V52.54a4.58,4.58,0,0,0-.84-3,3,3,0,0,0-2.44-1,3.7,3.7,0,0,0-3.39,2h0V44.06h-.89v14.6H27V53.2a3.91,3.91,0,0,1,1-2.84,3,3,0,0,1,2.23-1,2.36,2.36,0,0,1,2,.81,4.17,4.17,0,0,1,.64,2.57v5.91Zm-10-1.36a4.31,4.31,0,0,1-2.58.79,3.25,3.25,0,0,1-2.61-1.16,4.61,4.61,0,0,1-1-3.08,4.76,4.76,0,0,1,1.08-3.23,3.54,3.54,0,0,1,2.81-1.25,4.33,4.33,0,0,1,2.32.65V49a5.41,5.41,0,0,0-2.19-.46,4.64,4.64,0,0,0-3.56,1.5,5.44,5.44,0,0,0-1.39,3.85,5.23,5.23,0,0,0,1.23,3.62,4.14,4.14,0,0,0,3.25,1.38,4.91,4.91,0,0,0,2.62-.67ZM7.68,53a4.46,4.46,0,0,1,1.12-2.66,3.08,3.08,0,0,1,2.3-.93,2.55,2.55,0,0,1,2.1.94A4.37,4.37,0,0,1,14,53Zm7.26.81v-.39a5.69,5.69,0,0,0-1-3.52,3.33,3.33,0,0,0-2.82-1.29A4,4,0,0,0,7.95,50a5.5,5.5,0,0,0-1.23,3.64A5.75,5.75,0,0,0,7.9,57.53,3.87,3.87,0,0,0,11,58.9a5.77,5.77,0,0,0,3.42-1.09v-.94a5.24,5.24,0,0,1-3.24,1.22,3.15,3.15,0,0,1-2.58-1.15,4.87,4.87,0,0,1-.94-3.18ZM5.48,57.69A2.44,2.44,0,0,1,4.29,58a1.24,1.24,0,0,1-1.09-.46,2.62,2.62,0,0,1-.32-1.48V49.6h2.6V48.8H2.88V45.94l-.44.14L2,46.23V48.8H.22v.81H2v6.62q0,2.62,2.19,2.62a3.05,3.05,0,0,0,1.3-.33Z"/><path class="cls-2" d="M89.24,53.35v1A3.93,3.93,0,0,1,88.3,57a3,3,0,0,1-2.37,1.05,2.23,2.23,0,0,1-1.62-.57,2.24,2.24,0,0,1,0-3.06,4.7,4.7,0,0,1,2.18-.72Zm.89,5.31V52.24a4,4,0,0,0-.83-2.74,3,3,0,0,0-2.35-.94,5.66,5.66,0,0,0-1.77.31,4.81,4.81,0,0,0-1.49.74v1.07a4.86,4.86,0,0,1,3.17-1.31q2.39,0,2.39,3.18l-3,.45q-3.42.54-3.42,3.12a2.65,2.65,0,0,0,.82,2,3.07,3.07,0,0,0,2.22.79,3.52,3.52,0,0,0,2-.6,3.87,3.87,0,0,0,1.37-1.61h0v2Zm-9.94,0V48.8H79.3v9.86Zm.08-12.57a.73.73,0,0,0,.22-.53.65.65,0,0,0-.23-.52.79.79,0,0,0-.53-.19.75.75,0,0,0-.51.2.65.65,0,0,0-.23.52.74.74,0,0,0,.73.75A.72.72,0,0,0,80.27,46.09Zm-5,8.41A3.71,3.71,0,0,1,74.33,57a3.3,3.3,0,0,1-2.61,1A2.89,2.89,0,0,1,69.38,57a4.86,4.86,0,0,1-.91-3.15,4.89,4.89,0,0,1,1-3.27A3.21,3.21,0,0,1,72,49.36a3,3,0,0,1,2.34,1,3.35,3.35,0,0,1,.87,2.33Zm.89,4.16V44.06h-.89v6.32h0a3.28,3.28,0,0,0-3.16-1.82A4.08,4.08,0,0,0,68.8,50a5.77,5.77,0,0,0-1.26,3.87,5.42,5.42,0,0,0,1.15,3.67,3.75,3.75,0,0,0,3,1.33,4.16,4.16,0,0,0,2.13-.55,3.6,3.6,0,0,0,1.43-1.48h0v1.79ZM58.55,53a4.46,4.46,0,0,1,1.12-2.66,3.08,3.08,0,0,1,2.3-.93,2.55,2.55,0,0,1,2.1.94A4.37,4.37,0,0,1,64.89,53Zm7.26.81v-.39a5.69,5.69,0,0,0-1-3.52A3.33,3.33,0,0,0,62,48.56,4,4,0,0,0,58.82,50a5.5,5.5,0,0,0-1.23,3.64,5.75,5.75,0,0,0,1.17,3.86,3.87,3.87,0,0,0,3.08,1.37,5.77,5.77,0,0,0,3.42-1.09v-.94A5.24,5.24,0,0,1,62,58.09a3.15,3.15,0,0,1-2.58-1.15,4.87,4.87,0,0,1-.94-3.18ZM55.35,58.66V52.56q0-4-3.24-4a3.24,3.24,0,0,0-1.87.59,3.78,3.78,0,0,0-1.32,1.66,3.05,3.05,0,0,0-1-1.63A2.83,2.83,0,0,0,46,48.56a3.27,3.27,0,0,0-3,1.88h0V48.8H42.1v9.86H43V53a4.06,4.06,0,0,1,.8-2.6,2.46,2.46,0,0,1,2-1q2.5,0,2.5,3.29v6h.89V52.88A3.75,3.75,0,0,1,50,50.37a2.56,2.56,0,0,1,2-1,2.19,2.19,0,0,1,1.84.75,4.38,4.38,0,0,1,.58,2.61v5.93Z"/><path class="cls-1" d="M177.11,54.53a3.6,3.6,0,0,1-.94,2.52,3.27,3.27,0,0,1-2.53,1,2.94,2.94,0,0,1-2.4-1.12,4.87,4.87,0,0,1-.91-3.14,5,5,0,0,1,1-3.24,3.21,3.21,0,0,1,2.62-1.22,3,3,0,0,1,2.3,1,3.22,3.22,0,0,1,.88,2.26ZM178,48.8h-.89v1.56h0a3.33,3.33,0,0,0-3.16-1.8A4,4,0,0,0,170.64,50a5.82,5.82,0,0,0-1.24,3.85,5.41,5.41,0,0,0,1.15,3.68,3.76,3.76,0,0,0,3,1.32,3.84,3.84,0,0,0,3.55-2h0v1.28q0,4.31-4.08,4.31a6.11,6.11,0,0,1-3-.87v.92a6.58,6.58,0,0,0,2.94.75A5,5,0,0,0,176.79,62,5.8,5.8,0,0,0,178,57.92Zm-10.85,9.86v-6a4.77,4.77,0,0,0-.85-3,2.94,2.94,0,0,0-2.45-1.06,3.57,3.57,0,0,0-3.37,2h0V48.8h-.89v9.86h.89V53a3.78,3.78,0,0,1,.92-2.59,3,3,0,0,1,2.34-1q2.56,0,2.56,3.55v5.74Zm-10.75,0V48.8h-.89v9.86Zm.08-12.57a.73.73,0,0,0,.22-.53.65.65,0,0,0-.23-.52.79.79,0,0,0-.53-.19.75.75,0,0,0-.51.2.65.65,0,0,0-.23.52.74.74,0,0,0,.73.75A.72.72,0,0,0,156.48,46.09Zm-2.92,11.6a2.44,2.44,0,0,1-1.18.36,1.24,1.24,0,0,1-1.09-.46,2.62,2.62,0,0,1-.32-1.48V49.6h2.6V48.8H151V45.94l-.44.14-.44.15V48.8H148.3v.81h1.77v6.62q0,2.62,2.19,2.62a3.05,3.05,0,0,0,1.3-.33ZM140,53a4.46,4.46,0,0,1,1.12-2.66,3.08,3.08,0,0,1,2.3-.93,2.55,2.55,0,0,1,2.1.94,4.37,4.37,0,0,1,.82,2.65Zm7.26.81v-.39a5.69,5.69,0,0,0-1-3.52,3.33,3.33,0,0,0-2.82-1.29A4,4,0,0,0,140.22,50,5.5,5.5,0,0,0,139,53.67a5.75,5.75,0,0,0,1.17,3.86,3.87,3.87,0,0,0,3.08,1.37,5.77,5.77,0,0,0,3.42-1.09v-.94a5.24,5.24,0,0,1-3.24,1.22,3.15,3.15,0,0,1-2.58-1.15,4.87,4.87,0,0,1-.94-3.18Zm-9.34,4.89-5.06-5.08,4.68-4.78h-1.15l-4.48,4.67h0V44.06H131v14.6h.89V53.78h0l4.72,4.87Zm-8.78-9.88a2.63,2.63,0,0,0-1-.17,2.53,2.53,0,0,0-1.69.63A3.59,3.59,0,0,0,125.35,51h0V48.8h-.87v9.86h.87V54a6.22,6.22,0,0,1,.79-3.42,2.3,2.3,0,0,1,2-1.2,1.74,1.74,0,0,1,1,.32Zm-8.5,4.57v1a3.93,3.93,0,0,1-.94,2.72,3,3,0,0,1-2.37,1.05,2.23,2.23,0,0,1-1.62-.57,2.24,2.24,0,0,1,0-3.06,4.7,4.7,0,0,1,2.18-.72Zm.89,5.31V52.24a4,4,0,0,0-.83-2.74,3,3,0,0,0-2.35-.94,5.66,5.66,0,0,0-1.77.31,4.81,4.81,0,0,0-1.49.74v1.07a4.86,4.86,0,0,1,3.17-1.31q2.39,0,2.39,3.18l-3,.45q-3.42.54-3.42,3.12a2.65,2.65,0,0,0,.82,2,3.07,3.07,0,0,0,2.22.79,3.52,3.52,0,0,0,2-.6,3.87,3.87,0,0,0,1.37-1.61h0v2Zm-9.74,0V52.56q0-4-3.24-4a3.24,3.24,0,0,0-1.87.59,3.78,3.78,0,0,0-1.32,1.66,3.05,3.05,0,0,0-1-1.63,2.83,2.83,0,0,0-1.84-.62,3.27,3.27,0,0,0-3,1.88h0V48.8h-.89v9.86h.89V53a4.06,4.06,0,0,1,.8-2.6,2.46,2.46,0,0,1,2-1q2.5,0,2.5,3.29v6h.89V52.88a3.75,3.75,0,0,1,.85-2.51,2.56,2.56,0,0,1,2-1,2.19,2.19,0,0,1,1.84.75,4.38,4.38,0,0,1,.58,2.61v5.93Z"/></svg>